#!OML:ASF F:\VICON\USERDATA\INSTALL\rory3\rory3.ASF
:FULLY-SPECIFIED
:DEGREES
75
root -0.6210254146684179 17.244723532858856 34.773461099091136 0.6385244123192306 7.316492631697737 1.2859363162149136
lfemur -13.467040982252605 -3.161724769276411 -28.28214425853595
ltibia 43.723076485261906
lfoot -20.808230593438857 0.34494166186626884
ltoes -2.011724686416688
rfemur -23.60958583496429 -6.687238475104095 18.376128899623474
rtibia 116.15518686532124
rfoot 11.360920765114358 -6.285872751193392
rtoes 16.67151144608449
lowerback 1.0 0.3312512402866994 -1.7419039738750137
upperback 0.015499736249264151 0.2755089532149414 -0.6546005520086748
thorax -9.285464861159396 0.1948915861028127 0.9859578306489813
lowerneck -21.371279287552852 -4.353723094671745 -1.9153791490172738
upperneck 10.976403829999578 -6.05612347546848 3.804554536882998
head 6.9675267670756895 -2.6757791186752335 0.7950023223333889
lclavicle 5.733929899966954e-16 -2.7054817742518313e-15
lhumerus -46.17355046079828 -16.219391851916107 97.46976885926316
lradius 111.49241540545337
lwrist 34.05330412377669
lhand -32.0074653543465 0.49167819259128154
lfingers 7.12502
lthumb -5.0508927068231 29.964430074320475
rclavicle -5.846455308613644e-16 -3.1334420314601416e-15
rhumerus -49.563994787811424 12.654243902755903 -101.70018773011455
rradius 124.0292571543658
rwrist -11.774502549599347
rhand -18.029706360649435 1.0
rfingers 7.12502
rthumb 7.078497268893809 8.010973958340406
76
root -0.5922055769375277 17.21559173263858 35.00719356643579 0.9134119514914016 7.231011129411069 1.692993373502173
lfemur -10.528469461286196 -3.6254699829829207 -28.824763237154837
ltibia 42.6334163085377
lfoot -21.786124210614958 1.7877255967016357
ltoes -3.189760952585229
rfemur -28.61680846926739 -7.525453875336575 17.664975524428147
rtibia 118.03572806367872
rfoot 11.018029455852664 -4.4704792752127265
rtoes 12.290602569450332
lowerback 1.0 0.08014427906859684 -2.154720922789876
upperback -0.06795478204299443 -0.1444573316674923 -0.6606514412260995
thorax -9.314993605272301 0.011131172547060975 1.2638285025704046
lowerneck -21.640224341357175 -4.052046665523832 -1.9213736020502008
upperneck 11.173571036299123 -5.581993862526014 3.670871437191953
head 7.036509640227233 -2.4484908026838594 0.8164657317004294
lclavicle 7.262196836984961e-16 -2.3426468940946564e-15
lhumerus -44.64507677267437 -16.45655196936392 97.30184210410302
lradius 111.75828067142305
lwrist 33.375638706934744
lhand -31.854863430791248 0.6492553186644414
lfingers 7.12502
lthumb -4.839197152566901 30.31242673325336
rclavicle -3.573256349222675e-16 -2.692583142018886e-15
rhumerus -50.33986335093115 12.221672942987757 -101.93789889566494
rradius 123.93811606756174
rwrist -12.10670236913873
rhand -17.92867688417503 1.0
rfingers 7.12502
rthumb 7.2065746697775985 8.030213694375696
77
root -0.5773266819172286 17.20717736314114 35.29716386217745 1.3144440253541338 6.83265884084755 1.815370744538343
lfemur -7.704011360754631 -3.817593303905513 -29.003531257213083
ltibia 41.276612542728195
lfoot -20.457341245455368 2.389097560849768
ltoes -7.348675546912901
rfemur -33.393693092260854 -7.632531861646267 17.802056530302742
rtibia 117.73673186853267
rfoot 10.381107570670675 -3.0926779500050117
rtoes 7.3162461593920955
lowerback 1.0 -0.16533759396238035 -2.422179807395178
upperback -0.16842180825317 -0.5298537224435141 -0.5271237843028656
thorax -9.255427516665728 -0.15704800646243738 1.561337951509728
lowerneck -21.708365363559437 -3.7509721653170027 -1.9465730084795259
upperneck 11.502898652349366 -5.106628817918326 3.493583832513231
head 7.124551413715438 -2.221446055136023 0.8277658613272145
lclavicle 1.2761324853448827e-15 -2.200201813002595e-15
lhumerus -43.37067363063841 -16.604900399972863 97.14447058432393
lradius 112.23986261897863
lwrist 33.34050940984333
lhand -31.7793805204804 0.7242280762080109
lfingers 7.12502
lthumb -4.7276395927167485 30.21798114149283
rclavicle 8.551322862548905e-16 -2.15641134800419e-15
rhumerus -51.14717217276487 11.80829714856135 -102.10227631201172
rradius 124.07065392654508
rwrist -12.484384590849343
rhand -17.938275071393544 1.0
rfingers 7.12502
rthumb 7.177347135247374 7.863608740176268
78
root -0.5407793148339527 17.275397576324625 35.896189620687814 1.5627876423326046 6.368932231386249 1.7414954860459269
lfemur -4.810846190811221 -3.864166801872323 -28.902818591549806
ltibia 39.76704984275837
lfoot -17.04300377354566 1.7666126731420153
ltoes -14.584648426323504
rfemur -37.22752241665431 -7.319608762999598 18.505223056239373
rtibia 115.26839705710464
rfoot 9.282764449536362 -2.2247855933993277
rtoes 4.380260118785085
lowerback 1.0 -0.42542048424653434 -2.4618625175623086
upperback -0.31249703192106254 -0.8973409050766638 -0.2486840562732806
thorax -9.131104486705354 -0.3171815983894904 1.8718748228875377
lowerneck -21.552026346344768 -3.4505997172340255 -1.9920762387210216
upperneck 11.976150705243596 -4.631283020234216 3.2800708557567857
head 7.232814526905435 -2.0002595713604885 0.8329549714308154
lclavicle 1.1838426590837748e-15 -2.9038845779784285e-15
lhumerus -42.40544726806009 -16.73060337970156 96.99944628989287
lradius 112.89543246730648
lwrist 33.79999784003141
lhand -31.753424088864936 0.633939131433243
lfingers 7.12502
lthumb -4.738886363566351 30.180824820066512
rclavicle 1.522610041382916e-15 -2.2826758056805004e-15
rhumerus -51.9711149860251 11.404153648893075 -102.19866528194999
rradius 124.40926551960814
rwrist -12.877356697763844
rhand -17.85332838733661 1.0
rfingers 7.12502
rthumb 7.302878807182012 8.155158112804532
